<svg width="25" height="24" viewBox="0 0 25 24" fill="none" xmlns="http://www.w3.org/2000/svg">
    <path d="M20.875 17.0002V11.4522C20.875 10.9179 20.8745 10.6506 20.8096 10.4019C20.752 10.1816 20.6575 9.97307 20.5296 9.78464C20.3852 9.57201 20.1846 9.39569 19.7824 9.04383L14.9824 4.84383C14.2358 4.19054 13.8625 3.86406 13.4424 3.73982C13.0722 3.63035 12.6776 3.63035 12.3074 3.73982C11.8876 3.86397 11.5148 4.19014 10.7694 4.84244L5.96777 9.04383C5.56564 9.39569 5.36504 9.57201 5.2207 9.78464C5.09279 9.97307 4.99755 10.1816 4.93997 10.4019C4.875 10.6506 4.875 10.9179 4.875 11.4522V17.0002C4.875 17.932 4.875 18.3978 5.02724 18.7654C5.23023 19.2554 5.61932 19.6452 6.10938 19.8482C6.47692 20.0005 6.94286 20.0005 7.87474 20.0005C8.80663 20.0005 9.27308 20.0005 9.64062 19.8482C10.1307 19.6452 10.5197 19.2555 10.7227 18.7654C10.8749 18.3979 10.875 17.932 10.875 17.0001V16.0001C10.875 14.8955 11.7704 14.0001 12.875 14.0001C13.9796 14.0001 14.875 14.8955 14.875 16.0001V17.0001C14.875 17.932 14.875 18.3979 15.0272 18.7654C15.2302 19.2555 15.6193 19.6452 16.1094 19.8482C16.4769 20.0005 16.9429 20.0005 17.8747 20.0005C18.8066 20.0005 19.2731 20.0005 19.6406 19.8482C20.1307 19.6452 20.5197 19.2554 20.7227 18.7654C20.8749 18.3978 20.875 17.932 20.875 17.0002Z" stroke="black" stroke-width="1.5" stroke-linecap="round" stroke-linejoin="round"/>
</svg>
